<svg width="52" height="52" viewBox="0 0 52 52" fill="none" xmlns="http://www.w3.org/2000/svg">
<rect x="0.5" y="0.5" width="51" height="51" rx="7.5" stroke="#462307" stroke-opacity="0.42"/>
<path d="M31.8169 26.534C31.8081 24.9008 32.537 23.668 34.0122 22.7601C33.1868 21.563 31.9399 20.9043 30.2934 20.7753C28.7348 20.6506 27.0313 21.6965 26.4078 21.6965C25.7492 21.6965 24.2389 20.8198 23.0535 20.8198C20.6036 20.8598 18 22.8002 18 26.7477C18 27.9137 18.2107 29.1182 18.6322 30.3614C19.1942 31.9947 21.2226 36 23.3389 35.9332C24.4453 35.9065 25.2268 35.1366 26.6669 35.1366C28.063 35.1366 28.7875 35.9332 30.0212 35.9332C32.155 35.9021 33.9902 32.2617 34.5259 30.6239C31.6633 29.2577 31.8169 26.6186 31.8169 26.534ZM29.3319 19.2265C30.5305 17.7846 30.4207 16.4717 30.3856 16C29.3275 16.0623 28.1026 16.7299 27.4045 17.5532C26.6361 18.4344 26.1839 19.5247 26.2805 20.753C27.4264 20.842 28.4714 20.2457 29.3319 19.2265Z" fill="#141414"/>
</svg>
