<svg width="52" height="52" viewBox="0 0 52 52" fill="none" xmlns="http://www.w3.org/2000/svg">
<rect x="0.5" y="0.5" width="51" height="51" rx="7.5" stroke="#462307" stroke-opacity="0.42"/>
<g clip-path="url(#clip0_1933_35091)">
<path d="M35.174 25.7101C35.174 24.9312 35.1121 24.3629 34.9782 23.7734H26.2725V27.2889H31.3825C31.2796 28.1625 30.7232 29.4782 29.4869 30.3623L29.4695 30.48L32.2221 32.6585L32.4128 32.6779C34.1643 31.0254 35.174 28.594 35.174 25.7101Z" fill="#4285F4"/>
<path d="M26.2724 34.9743C28.7759 34.9743 30.8776 34.1323 32.4128 32.6798L29.4868 30.3642C28.7038 30.922 27.6529 31.3114 26.2724 31.3114C23.8204 31.3114 21.7392 29.659 20.9974 27.375L20.8886 27.3844L18.0264 29.6474L17.989 29.7537C19.5138 32.8481 22.6458 34.9743 26.2724 34.9743Z" fill="#34A853"/>
<path d="M20.9974 27.375C20.8017 26.7856 20.6884 26.154 20.6884 25.5015C20.6884 24.8489 20.8017 24.2174 20.9871 23.628L20.9819 23.5024L18.0839 21.2031L17.989 21.2492C17.3606 22.5333 17 23.9753 17 25.5015C17 27.0277 17.3606 28.4696 17.989 29.7537L20.9974 27.375Z" fill="#FBBC05"/>
<path d="M26.2724 19.6863C28.0135 19.6863 29.188 20.4546 29.8577 21.0967L32.4746 18.4864C30.8674 16.9602 28.7759 16.0234 26.2724 16.0234C22.6458 16.0234 19.5138 18.1496 17.989 21.244L20.9871 23.6228C21.7392 21.3388 23.8204 19.6863 26.2724 19.6863Z" fill="#EB4335"/>
</g>
<defs>
<clipPath id="clip0_1933_35091">
<rect x="17" y="16" width="18.1739" height="19" rx="9.08696" fill="white"/>
</clipPath>
</defs>
</svg>
