<svg width="32" height="32" viewBox="0 0 32 32" fill="none" xmlns="http://www.w3.org/2000/svg">
<rect width="32" height="32" rx="4" fill="#F3F3F3"/>
<path d="M15.9999 14.8215L11.589 10.4107C11.4318 10.2589 11.2213 10.1749 11.0029 10.1768C10.7844 10.1787 10.5753 10.2663 10.4208 10.4208C10.2663 10.5753 10.1787 10.7843 10.1768 11.0028C10.1749 11.2213 10.2589 11.4318 10.4107 11.589L14.8215 15.9998L10.4107 20.4107C10.2589 20.5678 10.1749 20.7783 10.1768 20.9968C10.1787 21.2153 10.2663 21.4243 10.4208 21.5788C10.5753 21.7333 10.7844 21.821 11.0029 21.8229C11.2213 21.8248 11.4318 21.7408 11.589 21.589L15.9999 17.1782L20.4107 21.589C20.5679 21.7408 20.7784 21.8248 20.9969 21.8229C21.2153 21.821 21.4244 21.7333 21.5789 21.5788C21.7334 21.4243 21.821 21.2153 21.8229 20.9968C21.8248 20.7783 21.7408 20.5678 21.589 20.4107L17.1782 15.9998L21.589 11.589C21.6686 11.5121 21.7321 11.4202 21.7758 11.3185C21.8194 11.2168 21.8424 11.1075 21.8434 10.9968C21.8444 10.8862 21.8233 10.7764 21.7814 10.674C21.7395 10.5716 21.6776 10.4786 21.5993 10.4003C21.5211 10.3221 21.4281 10.2602 21.3256 10.2183C21.2232 10.1764 21.1135 10.1553 21.0029 10.1563C20.8922 10.1572 20.7829 10.1802 20.6812 10.2239C20.5795 10.2676 20.4876 10.3311 20.4107 10.4107L15.9999 14.8215Z" fill="#CE7356"/>
</svg>
