<svg width="19" height="14" viewBox="0 0 19 14" fill="none" xmlns="http://www.w3.org/2000/svg">
<path d="M17.0366 5.78749C17.29 6.14275 17.4167 6.32039 17.4167 6.58333C17.4167 6.84628 17.29 7.02391 17.0366 7.37918C15.8983 8.97546 12.991 12.4167 9.08333 12.4167C5.17565 12.4167 2.26841 8.97547 1.13003 7.37918C0.876678 7.02391 0.75 6.84628 0.75 6.58333C0.75 6.32039 0.876678 6.14275 1.13003 5.78749C2.26841 4.1912 5.17565 0.75 9.08333 0.75C12.991 0.75 15.8983 4.1912 17.0366 5.78749Z" stroke="#CE7356" stroke-width="1.5"/>
<path d="M11.582 6.58594C11.582 5.20523 10.4627 4.08594 9.08203 4.08594C7.70132 4.08594 6.58203 5.20523 6.58203 6.58594C6.58203 7.96665 7.70132 9.08594 9.08203 9.08594C10.4627 9.08594 11.582 7.96665 11.582 6.58594Z" stroke="#CE7356" stroke-width="1.5"/>
</svg>
