<svg width="40" height="40" viewBox="0 0 40 40" fill="none" xmlns="http://www.w3.org/2000/svg">
<g clip-path="url(#clip0_3235_96473)">
<path d="M39.149 4.57018C38.4365 4.40846 37.674 4.25768 36.8834 4.11159C36.6354 4.06445 36.4074 3.94379 36.2289 3.76531C36.0504 3.58683 35.9297 3.35878 35.8826 3.11081C35.7357 2.31784 35.5849 1.55612 35.424 0.845181C35.2318 -0.0368503 33.8427 -0.276694 33.0802 0.323306C31.4467 1.65143 29.3732 3.64674 27.9638 5.20143C27.692 5.50065 27.581 5.95065 27.6552 6.39752C27.8443 7.51784 28.0099 8.64284 28.1693 9.72878L18.9521 18.9413C18.6747 19.2198 18.5191 19.5971 18.5195 19.9902C18.5199 20.3834 18.6763 20.7603 18.9543 21.0383C19.2323 21.3163 19.6092 21.4727 20.0024 21.4731C20.3955 21.4735 20.7728 21.3179 21.0513 21.0405L30.2654 11.8264C31.3513 11.9827 32.4756 12.1506 33.5967 12.3397C34.0427 12.4139 34.4935 12.303 34.7927 12.0319C36.3467 10.6256 38.3412 8.54909 39.6701 6.91549C40.2701 6.15143 40.031 4.76159 39.149 4.57018Z" fill="#CE7356"/>
<path d="M35.7359 13.0774C35.2981 13.4677 34.746 13.7063 34.1617 13.7578C35.6114 17.0544 35.8633 20.754 34.874 24.2167C33.8847 27.6794 31.7164 30.6874 28.7439 32.7206C25.7715 34.7538 22.182 35.6842 18.5962 35.351C15.0104 35.0178 11.6538 33.4418 9.107 30.8957C6.56016 28.3496 4.98322 24.9935 4.64892 21.4078C4.31463 17.8221 5.244 14.2323 7.2763 11.2593C9.30861 8.28633 12.316 6.11707 15.7784 5.12673C19.2408 4.1364 22.9405 4.38727 26.2375 5.83595C26.2902 5.25142 26.5284 4.69903 26.9172 4.25939C27.5156 3.59924 28.2312 2.86252 28.9836 2.12736C26.1969 0.724606 23.1198 -0.00407301 20 1.71238e-05C8.95469 1.71238e-05 0 8.9547 0 20C0 31.0453 8.95469 40 20 40C31.0453 40 40 31.0453 40 20C40.004 16.8775 39.2739 13.7978 37.8688 11.0094C37.1336 11.7625 36.3961 12.4789 35.7359 13.0774Z" fill="#5470C6"/>
<path d="M26.014 18.0596C26.4496 19.4108 26.4182 20.8692 25.9249 22.2005C25.4315 23.5317 24.5048 24.6584 23.2938 25.3993C22.0827 26.1402 20.6577 26.4524 19.2478 26.2857C17.8379 26.1189 16.5251 25.4829 15.5203 24.4799C14.5156 23.4768 13.8773 22.1651 13.7081 20.7555C13.5389 19.3459 13.8487 17.9203 14.5875 16.708C15.3264 15.4957 16.4514 14.5671 17.7818 14.0714C19.1122 13.5758 20.5706 13.5419 21.9226 13.9752L25.3468 10.551C23.0624 9.25663 20.3863 8.83435 17.8143 9.36238C15.2424 9.89042 12.9491 11.333 11.3595 13.4227C9.76993 15.5123 8.99181 18.1075 9.1694 20.727C9.34698 23.3466 10.4682 25.8129 12.3253 27.669C14.1824 29.525 16.6494 30.6448 19.2691 30.8209C21.8887 30.997 24.4834 30.2174 26.5722 28.6266C28.661 27.0358 30.1022 24.7417 30.6287 22.1694C31.1553 19.5972 30.7315 16.9213 29.4359 14.6377L26.014 18.0596Z" fill="#E0AD22"/>
</g>
<defs>
<clipPath id="clip0_3235_96473">
<rect width="40" height="40" fill="white"/>
</clipPath>
</defs>
</svg>
