<svg width="39" height="39" viewBox="0 0 39 39" fill="none" xmlns="http://www.w3.org/2000/svg">
<path fill-rule="evenodd" clip-rule="evenodd" d="M27.4357 35.0187L27.0547 35.9267L21.5 37.5182L21.0922 35.0187H27.4357ZM20.9483 33.9249C20.1846 23.7108 24.9236 27.6989 30.6566 21.9658C31.3736 21.1925 32.6682 21.5219 32.9282 22.5439C33.0015 22.8317 32.9591 23.1499 32.8308 23.4828C32.7775 23.6091 32.7187 23.7335 32.6552 23.8561L32.6649 23.8386L32.6631 23.842L32.6598 23.8479L32.6625 23.8428C32.6507 23.8641 32.639 23.8855 32.6273 23.9061C32.636 23.891 32.6444 23.8758 32.6528 23.8607C32.4127 24.3229 32.105 24.7576 31.7629 25.1568C30.5456 26.5772 28.9335 27.5267 28.3007 27.7264C28.0129 27.8172 27.8531 28.1242 27.944 28.4121C28.0348 28.6999 28.3418 28.8596 28.6297 28.7688C29.37 28.5353 31.2298 27.4552 32.5917 25.866C33.48 24.8295 34.1734 23.5673 34.2561 22.1556C34.2726 21.8547 34.0422 21.5974 33.7413 21.581L33.7276 21.5804C34.6844 19.3217 35.6865 16.4769 36.0316 15.1889C36.4447 13.6471 38.0654 13.6132 38.2671 15.0965C38.4079 16.1328 37.3993 20.2575 36.7048 22.5166C36.0948 24.5008 35.5904 25.8071 34.146 27.3168C33.1122 28.3974 31.8204 29.4103 30.7972 30.3181C29.5566 31.4185 28.4622 32.5206 27.8664 33.9249H20.9483Z" fill="#575F86"/>
<path fill-rule="evenodd" clip-rule="evenodd" d="M19.9922 38.2771V36.0173C19.9922 35.4664 20.443 35.0156 20.9939 35.0156H27.6663C28.2173 35.0156 28.668 35.4664 28.668 36.0173V38.2771H19.9922Z" fill="#575F86"/>
<path fill-rule="evenodd" clip-rule="evenodd" d="M19.1406 24.2304C29.5379 18.1997 33.404 12.137 32.8509 6.99002C32.1451 0.42236 24.6817 -3.2742 19.1406 3.93791C13.5995 -3.27428 6.13617 0.422282 5.43031 6.99002C4.87726 12.137 8.74328 18.1997 19.1406 24.2304ZM19.1406 7.40869C20.4594 6.20885 22.1974 5.58111 23.9929 6.29259C25.6922 6.96603 26.7535 8.61806 26.9449 10.3994C27.1361 12.1785 26.4386 13.8375 25.3841 15.2356C23.9334 17.159 21.7541 18.7111 19.6894 19.9087L19.1406 20.227L18.5919 19.9087C16.5273 18.7111 14.3479 17.159 12.8972 15.2356C11.8427 13.8375 11.1451 12.1785 11.3363 10.3994C11.5277 8.61806 12.5891 6.96603 14.2884 6.29259C16.0837 5.58103 17.8219 6.20877 19.1406 7.40869Z" fill="#E35F5C"/>
<path fill-rule="evenodd" clip-rule="evenodd" d="M19.1405 18.9646C24.2343 16.0101 26.1283 13.0399 25.8574 10.5183C25.5116 7.30072 21.8551 5.48962 19.1405 9.02298C16.4258 5.48962 12.7694 7.30064 12.4236 10.5183C12.1527 13.0399 14.0467 16.0101 19.1405 18.9646ZM16.1054 13.4158C15.8919 13.2023 15.8919 12.856 16.1054 12.6425C16.3189 12.429 16.6652 12.429 16.8787 12.6425L18.1415 13.9053L21.4023 10.6445C21.6158 10.431 21.9621 10.431 22.1756 10.6445C22.3891 10.8581 22.3891 11.2043 22.1756 11.4178L18.5282 15.0652C18.3146 15.2788 17.9684 15.2788 17.7549 15.0652L16.1054 13.4158Z" fill="#CE7356"/>
<path fill-rule="evenodd" clip-rule="evenodd" d="M10.8447 35.0187L11.2257 35.9267L16.7804 37.5182L17.1881 35.0187H10.8447ZM17.3321 33.9249C18.0958 23.7108 13.3568 27.6989 7.62376 21.9658C6.90681 21.1925 5.6122 21.5219 5.35212 22.5439C5.27892 22.8317 5.32126 23.1499 5.44954 23.4828C5.5029 23.6091 5.56165 23.7335 5.62517 23.8561L5.61548 23.8386L5.61728 23.842L5.62056 23.8479L5.61782 23.8428C5.62962 23.8641 5.64142 23.8855 5.65306 23.9061C5.64438 23.891 5.63595 23.8758 5.62759 23.8607C5.86767 24.3229 6.17532 24.7576 6.51751 25.1568C7.73478 26.5772 9.34688 27.5267 9.9797 27.7264C10.2675 27.8172 10.4273 28.1242 10.3364 28.4121C10.2456 28.6999 9.9386 28.8596 9.65071 28.7688C8.91032 28.5353 7.05056 27.4552 5.68868 25.866C4.8004 24.8295 4.10696 23.5673 4.02423 22.1556C4.00774 21.8547 4.23821 21.5974 4.53907 21.581L4.55274 21.5804C3.59595 19.3217 2.59392 16.4769 2.24876 15.1889C1.83563 13.6471 0.214932 13.6132 0.0132911 15.0965C-0.12749 16.1328 0.881025 20.2575 1.57556 22.5166C2.18556 24.5008 2.68993 25.8071 4.13438 27.3168C5.16821 28.3974 6.45993 29.4103 7.48321 30.3181C8.72376 31.4185 9.81813 32.5206 10.414 33.9249H17.3321Z" fill="#575F86"/>
<path fill-rule="evenodd" clip-rule="evenodd" d="M18.2891 38.2849V36.0252C18.2891 35.4742 17.8384 35.0234 17.2874 35.0234H10.615C10.0641 35.0234 9.61328 35.4742 9.61328 36.0252V38.2849H18.2891Z" fill="#575F86"/>
</svg>
