<svg width="40" height="40" viewBox="0 0 40 40" fill="none" xmlns="http://www.w3.org/2000/svg">
<path d="M38.8284 18.8297H37.5982C37.5488 18.1449 37.4739 17.4671 37.3519 16.8047L28.0664 18.6456C28.1409 19.0891 28.2034 19.5372 28.2034 20.0016C28.2034 20.4656 28.1408 20.9137 28.0664 21.357L37.3517 23.1986C37.4737 22.536 37.5487 21.8582 37.5982 21.1734H38.8284C39.4762 21.1734 40.0003 20.6493 40.0003 20.0016C40.0003 19.3538 39.4762 18.8297 38.8284 18.8297Z" fill="#CE7356"/>
<path d="M19.9982 39.9964C20.6459 39.9964 21.1701 39.4723 21.1701 38.8245V37.5943C21.8547 37.5449 22.5325 37.47 23.195 37.348L21.3535 28.0625C20.9102 28.1369 20.4623 28.1995 19.9982 28.1995C19.5341 28.1995 19.0861 28.1369 18.6428 28.0625L16.8008 37.3478C17.4634 37.47 18.1413 37.5449 18.8264 37.5943V38.8245C18.8263 39.4723 19.3505 39.9964 19.9982 39.9964Z" fill="#CE7356"/>
<path d="M19.998 0C19.3502 0 18.8261 0.524141 18.8261 1.17188V2.40211C18.1412 2.45164 17.4634 2.52656 16.8008 2.64859L18.6423 11.9339C19.0857 11.8595 19.5337 11.7969 19.998 11.7969C20.4623 11.7969 20.9103 11.8594 21.3538 11.9339L23.1952 2.64859C22.5326 2.52656 21.8548 2.45164 21.1698 2.40211V1.17188C21.1698 0.524141 20.6457 0 19.998 0Z" fill="#CE7356"/>
<path d="M25.8594 18.8281C25.8594 17.0211 24.1508 15.3125 22.3438 15.3125C21.4397 15.3125 20.6374 15.6227 20 16.1971C19.3626 15.6227 18.5603 15.3125 17.6562 15.3125C15.8492 15.3125 14.1406 17.0211 14.1406 18.8281C14.1406 20.6546 15.6146 22.251 19.3969 24.5204C19.5823 24.6314 19.7917 24.6875 20 24.6875C20.2083 24.6875 20.4177 24.6314 20.6031 24.5204C24.3854 22.2499 25.8594 20.6546 25.8594 18.8281Z" fill="#CE7356"/>
<path d="M36.7733 14.5302C35.0351 9.22961 30.7704 4.96484 25.4699 3.22656L23.5977 12.667C25.2212 13.4675 26.5323 14.7788 27.3329 16.4022L36.7733 14.5302Z" fill="#8D54C6"/>
<path d="M11.9339 21.3577C11.8595 20.9145 11.7969 20.4664 11.7969 20.0023C11.7969 19.538 11.8594 19.0898 11.9339 18.6463L2.64859 16.8047C2.52641 17.4674 2.45148 18.1455 2.40211 18.8305H1.17188C0.524141 18.8305 0 19.3546 0 20.0023C0 20.6501 0.524141 21.1742 1.17188 21.1742H2.40211C2.45164 21.859 2.52656 22.5368 2.64859 23.1994L11.9339 21.3577Z" fill="#CE7356"/>
<path d="M23.5977 27.3377L25.4702 36.7779C30.7709 35.04 35.0358 30.7748 36.774 25.4742L27.3339 23.6016C26.5332 25.2254 25.2214 26.537 23.5977 27.3377Z" fill="#5470C6"/>
<path d="M3.22656 14.5296L12.6668 16.4022C13.4673 14.7787 14.7788 13.4673 16.4023 12.6668L14.5298 3.22656C9.22945 4.96461 4.96469 9.2293 3.22656 14.5296Z" fill="#A2C654"/>
<path d="M14.5259 36.7777L16.3988 27.3377C14.7751 26.537 13.4634 25.2254 12.6627 23.6016L3.22266 25.4743C4.96086 30.7748 9.22539 35.0394 14.5259 36.7777Z" fill="#54C6BC"/>
</svg>
