<svg width="26" height="31" viewBox="0 0 26 31" fill="none" xmlns="http://www.w3.org/2000/svg">
<path d="M12.5784 13.5474C16.3194 13.5474 19.3521 10.5147 19.3521 6.77369C19.3521 3.03268 16.3194 0 12.5784 0C8.83737 0 5.80469 3.03268 5.80469 6.77369C5.80469 10.5147 8.83737 13.5474 12.5784 13.5474Z" fill="#575F86"/>
<path d="M12.5781 15.4854C15.5625 15.4478 18.4624 16.4745 20.7588 18.3809C23.0552 20.2873 24.598 22.9493 25.1104 25.8896C25.2007 26.5076 25.1569 27.1379 24.9814 27.7373C24.806 28.3368 24.5031 28.8915 24.0938 29.3633C23.6529 29.8703 23.1073 30.2758 22.4951 30.5527C21.8829 30.8297 21.2179 30.9714 20.5459 30.9678H18.4619C18.5372 30.5881 18.5781 30.1958 18.5781 29.7939C18.5781 26.4802 15.8918 23.7939 12.5781 23.7939C9.26442 23.7939 6.57812 26.4802 6.57812 29.7939C6.57812 30.1958 6.61901 30.5881 6.69434 30.9678H4.61035C3.93837 30.9714 3.27337 30.8297 2.66113 30.5527C2.04894 30.2757 1.5034 29.8703 1.0625 29.3633C0.653125 28.8915 0.350292 28.3368 0.174805 27.7373C-0.000640567 27.1379 -0.0444176 26.5076 0.0458984 25.8896C0.558211 22.9493 2.10101 20.2873 4.39746 18.3809C6.69389 16.4745 9.59379 15.4478 12.5781 15.4854Z" fill="#E0AD22"/>
</svg>
