<svg width="40" height="40" viewBox="0 0 40 40" fill="none" xmlns="http://www.w3.org/2000/svg">
<path d="M30.3424 11.4709C30.0946 6.08179 25.6787 1.6659 20.2887 1.41779C17.3675 1.28382 14.6051 2.31989 12.5018 4.32886C11.2653 5.50959 10.3607 6.91309 9.81139 8.50061C9.49828 9.40729 9.64049 10.3796 10.2026 11.1678C10.7678 11.961 11.6852 12.4346 12.6562 12.4346C13.938 12.4346 15.0641 11.6528 15.4584 10.4894C15.6946 9.79182 16.0901 9.17475 16.6345 8.65504C17.5452 7.78437 18.7445 7.33912 20.0146 7.39405C21.2714 7.45203 22.4664 8.04865 23.2941 9.03101C24.1235 10.0161 24.4934 11.2554 24.3347 12.5204C24.1443 14.0408 23.15 15.4168 21.7395 16.1114C18.7408 17.5881 16.803 20.7507 16.803 24.1683V26.8527C16.803 28.5021 18.1451 29.844 19.7943 29.844C21.4435 29.844 22.7856 28.5021 22.7856 26.8527V24.1683C22.7856 23.0047 23.418 21.9464 24.397 21.4718C28.2037 19.6264 30.5371 15.7009 30.3424 11.4709Z" fill="#CE7356"/>
<path d="M36.9205 21.0051C35.7126 19.6837 34.0665 18.9336 32.2848 18.8924C31.2411 18.8689 30.2389 19.0843 29.3112 19.5351C28.7424 19.8115 28.3554 20.3313 28.2498 20.9605C28.1436 21.5926 28.3505 22.2392 28.8022 22.6909C29.3991 23.2884 30.2902 23.4474 31.0172 23.0876C31.3821 22.9073 31.7923 22.8169 32.1945 22.8303C32.8921 22.8462 33.5373 23.1407 34.0109 23.6595C34.4797 24.1734 34.7134 24.8744 34.653 25.5827C34.592 26.2929 34.252 26.9221 33.696 27.3546C33.0258 27.8749 32.0969 28.0238 31.2711 27.7437C29.321 27.0799 27.0993 27.6134 25.6113 29.1014L24.4821 30.2306C23.7143 30.9981 23.7143 32.2475 24.4821 33.0156C24.866 33.3995 25.3702 33.5915 25.8749 33.5915C26.3791 33.5915 26.8832 33.3995 27.2672 33.0156L28.3963 31.8864C28.8339 31.4485 29.4675 31.2862 30.0113 31.4751C32.4582 32.3234 35.1712 31.635 36.9205 29.7182C39.1489 27.2758 39.1489 23.4486 36.9205 21.0051Z" fill="#8D54C6"/>
<path d="M14.4019 29.2734C13.9637 28.8352 13.8019 28.2014 13.9911 27.6581C14.8401 25.2094 14.1504 22.4973 12.2339 20.7487C9.79007 18.5206 5.96317 18.5218 3.52053 20.7493C2.19912 21.9565 1.449 23.6027 1.40811 25.3843C1.3837 26.431 1.59976 27.4317 2.0502 28.3582C2.3273 28.9271 2.8467 29.314 3.47598 29.4199C4.10647 29.5258 4.75467 29.3198 5.20632 28.8676C5.80325 28.2709 5.96255 27.3807 5.60305 26.6523C5.42239 26.2876 5.33633 25.8915 5.34548 25.4749C5.36135 24.7779 5.65615 24.1328 6.17434 23.6588C6.68826 23.1901 7.38711 22.9545 8.09878 23.0167C8.80862 23.0775 9.43789 23.4174 9.87063 23.9741C10.3913 24.6436 10.5396 25.5726 10.2588 26.3984C9.59597 28.3488 10.1288 30.5704 11.6168 32.0585L12.746 33.1873C13.1177 33.5593 13.6127 33.7641 14.1382 33.7641C14.6643 33.7641 15.1593 33.5593 15.531 33.1873C16.2989 32.4195 16.2989 31.1704 15.531 30.4026L14.4019 29.2734Z" fill="#A2C654"/>
<path d="M20 38.5938C21.6396 38.5938 22.9688 37.2646 22.9688 35.625C22.9688 33.9854 21.6396 32.6562 20 32.6562C18.3604 32.6562 17.0312 33.9854 17.0312 35.625C17.0312 37.2646 18.3604 38.5938 20 38.5938Z" fill="#E0AD22"/>
</svg>
