<svg width="16" height="16" viewBox="0 0 16 16" fill="none" xmlns="http://www.w3.org/2000/svg">
<path d="M14.3623 7.35811C14.565 7.64233 14.6663 7.78443 14.6663 7.99479C14.6663 8.20515 14.565 8.34725 14.3623 8.63147C13.4516 9.9085 11.1258 12.6615 7.99967 12.6615C4.87353 12.6615 2.54774 9.9085 1.63704 8.63147C1.43435 8.34725 1.33301 8.20515 1.33301 7.99479C1.33301 7.78443 1.43435 7.64233 1.63703 7.35811C2.54774 6.08109 4.87353 3.32812 7.99967 3.32812C11.1258 3.32812 13.4516 6.08108 14.3623 7.35811Z" stroke="#CE7356" stroke-width="0.75"/>
<path d="M10 8C10 6.89543 9.10457 6 8 6C6.89543 6 6 6.89543 6 8C6 9.10457 6.89543 10 8 10C9.10457 10 10 9.10457 10 8Z" stroke="#CE7356" stroke-width="0.75"/>
</svg>
