<svg width="40" height="40" viewBox="0 0 40 40" fill="none" xmlns="http://www.w3.org/2000/svg">
<g clip-path="url(#clip0_3432_100644)">
<path fill-rule="evenodd" clip-rule="evenodd" d="M28.295 35.8781L27.914 36.7861L22.3593 38.3775L21.9516 35.8781H28.295ZM21.8076 34.7843C21.044 24.5702 25.7829 28.5582 31.516 22.8252C32.2329 22.0519 33.5275 22.3813 33.7876 23.4033C33.8608 23.691 33.8185 24.0092 33.6902 24.3421C33.6368 24.4685 33.5781 24.5929 33.5146 24.7155L33.5243 24.698L33.5225 24.7014L33.5192 24.7073L33.5219 24.7022C33.5101 24.7235 33.4983 24.7449 33.4867 24.7655C33.4954 24.7503 33.5038 24.7352 33.5122 24.72C33.2721 25.1823 32.9644 25.617 32.6222 26.0162C31.405 27.4366 29.7929 28.3861 29.16 28.5857C28.8722 28.6766 28.7125 28.9835 28.8033 29.2714C28.8942 29.5593 29.2011 29.719 29.489 29.6281C30.2294 29.3946 32.0892 28.3146 33.4511 26.7254C34.3393 25.6889 35.0328 24.4267 35.1155 23.0149C35.132 22.7141 34.9015 22.4568 34.6007 22.4403L34.587 22.4398C35.5438 20.1811 36.5458 17.3363 36.891 16.0482C37.3041 14.5065 38.9248 14.4726 39.1265 15.9559C39.2672 16.9922 38.2587 21.1169 37.5642 23.376C36.9542 25.3602 36.4498 26.6664 35.0054 28.1762C33.9715 29.2567 32.6798 30.2696 31.6565 31.1774C30.416 32.2779 29.3216 33.38 28.7257 34.7843H21.8076Z" fill="#575F86"/>
<path fill-rule="evenodd" clip-rule="evenodd" d="M20.8516 39.1365V36.8767C20.8516 36.3258 21.3023 35.875 21.8533 35.875H28.5257C29.0766 35.875 29.5274 36.3258 29.5274 36.8767V39.1365H20.8516Z" fill="#575F86"/>
<path fill-rule="evenodd" clip-rule="evenodd" d="M20 25.0898C30.3973 19.0591 34.2634 12.9964 33.7102 7.84939C33.0044 1.28174 25.5411 -2.41483 20 4.79728C14.4589 -2.41491 6.99554 1.28166 6.28969 7.84939C5.73664 12.9964 9.60265 19.0591 20 25.0898ZM20 8.26806C21.3187 7.06822 23.0568 6.44049 24.8523 7.15197C26.5516 7.82541 27.6129 9.47744 27.8043 11.2588C27.9955 13.0378 27.298 14.6969 26.2434 16.095C24.7927 18.0184 22.6134 19.5705 20.5487 20.7681L20 21.0863L19.4512 20.7681C17.3866 19.5705 15.2073 18.0184 13.7566 16.095C12.702 14.6969 12.0044 13.0378 12.1957 11.2588C12.3871 9.47744 13.4484 7.82541 15.1477 7.15197C16.9431 6.44041 18.6812 7.06814 20 8.26806Z" fill="#E35F5C"/>
<path fill-rule="evenodd" clip-rule="evenodd" d="M19.9999 19.824C25.0937 16.8695 26.9877 13.8992 26.7167 11.3777C26.371 8.16009 22.7145 6.349 19.9999 9.88236C17.2852 6.349 13.6288 8.16001 13.283 11.3777C13.0121 13.8992 14.906 16.8695 19.9999 19.824ZM16.9648 14.2752C16.7513 14.0617 16.7513 13.7154 16.9648 13.5019C17.1783 13.2884 17.5246 13.2884 17.7381 13.5019L19.0009 14.7647L22.2617 11.5039C22.4752 11.2904 22.8214 11.2904 23.0349 11.5039C23.2485 11.7174 23.2485 12.0637 23.0349 12.2772L19.3875 15.9246C19.174 16.1381 18.8278 16.1381 18.6142 15.9246L16.9648 14.2752Z" fill="#CE7356"/>
<path fill-rule="evenodd" clip-rule="evenodd" d="M11.7041 35.8781L12.0851 36.7861L17.6398 38.3775L18.0475 35.8781H11.7041ZM18.1915 34.7843C18.9552 24.5702 14.2162 28.5582 8.48313 22.8252C7.76618 22.0519 6.47157 22.3813 6.21149 23.4033C6.13829 23.691 6.18063 24.0092 6.30892 24.3421C6.36228 24.4685 6.42103 24.5929 6.48454 24.7155L6.47485 24.698L6.47665 24.7014L6.47993 24.7073L6.4772 24.7022C6.48899 24.7235 6.50079 24.7449 6.51243 24.7655C6.50376 24.7503 6.49532 24.7352 6.48696 24.72C6.72704 25.1823 7.0347 25.617 7.37688 26.0162C8.59415 27.4366 10.2063 28.3861 10.8391 28.5857C11.1269 28.6766 11.2867 28.9835 11.1958 29.2714C11.105 29.5592 10.798 29.719 10.5101 29.6281C9.7697 29.3946 7.90993 28.3146 6.54806 26.7254C5.65978 25.6889 4.96634 24.4267 4.8836 23.0149C4.86712 22.7141 5.09759 22.4568 5.39845 22.4403L5.41212 22.4398C4.45532 20.1811 3.45329 17.3363 3.10813 16.0482C2.69501 14.5065 1.07431 14.4726 0.872666 15.9559C0.731885 16.9922 1.7404 21.1169 2.43493 23.376C3.04493 25.3602 3.54931 26.6664 4.99376 28.1762C6.02759 29.2567 7.31931 30.2696 8.34259 31.1774C9.58313 32.2779 10.6775 33.38 11.2734 34.7843H18.1915Z" fill="#575F86"/>
<path fill-rule="evenodd" clip-rule="evenodd" d="M19.1485 39.1443V36.8845C19.1485 36.3336 18.6977 35.8828 18.1468 35.8828H11.4744C10.9234 35.8828 10.4727 36.3336 10.4727 36.8845V39.1443H19.1485Z" fill="#575F86"/>
</g>
<defs>
<clipPath id="clip0_3432_100644">
<rect width="40" height="40" fill="white"/>
</clipPath>
</defs>
</svg>
