<svg width="40" height="40" viewBox="0 0 40 40" fill="none" xmlns="http://www.w3.org/2000/svg">
<g clip-path="url(#clip0_3235_96387)">
<path d="M33.1772 0H11.8387C10.1368 0 8.73211 1.14367 8.29688 2.67711H28.1563C31.4791 2.67711 34.1823 5.38039 34.1823 8.70312V34.8399C35.7397 34.4004 36.8595 32.9663 36.8595 31.2969V3.68227C36.8595 1.62453 35.1884 0 33.1772 0Z" fill="#E0AD22"/>
<path d="M24.4739 24.0317V15.9638L17.487 11.9297L10.5 15.9638V24.0317L17.487 28.0659L24.4739 24.0317ZM16.5119 25.0414L13.5828 20.6475C13.3204 20.2538 13.3204 19.741 13.5828 19.3473L16.5119 14.9541C16.9548 14.2641 18.0191 14.2642 18.462 14.9541L21.391 19.3473C21.6534 19.741 21.6534 20.2538 21.391 20.6475L18.462 25.0414C18.0191 25.7315 16.9548 25.7313 16.5119 25.0414Z" fill="#CE7356"/>
<path d="M28.1576 5.02344H6.81898C4.76148 5.02344 3.13672 6.69453 3.13672 8.7057V36.3203C3.13672 38.3779 4.80781 40.0026 6.81898 40.0026H28.1576C30.2154 40.0026 31.8398 38.3313 31.8398 36.3203V8.7057C31.8398 6.64797 30.1687 5.02344 28.1576 5.02344ZM8.15758 15.2923C8.15758 14.8737 8.38094 14.4868 8.74352 14.2775L16.9023 9.56672C17.265 9.35734 17.7116 9.35734 18.0743 9.56672L26.2331 14.2775C26.5957 14.4869 26.8191 14.8737 26.8191 15.2923V24.7133C26.8191 25.132 26.5957 25.5188 26.2331 25.7281L18.0743 30.4389C17.7116 30.6483 17.265 30.6483 16.9023 30.4389L8.74352 25.7281C8.38094 25.5187 8.15758 25.132 8.15758 24.7133V15.2923ZM25.6471 34.9817H9.32945C7.77625 34.9241 7.77742 32.6951 9.32945 32.638H25.6471C27.2003 32.6956 27.1991 34.9247 25.6471 34.9817Z" fill="#50A1A4"/>
<path d="M19.01 19.9995L17.4894 17.7188L15.9688 19.9995L17.4894 22.2805L19.01 19.9995Z" fill="#CE7356"/>
</g>
<defs>
<clipPath id="clip0_3235_96387">
<rect width="40" height="40" fill="white"/>
</clipPath>
</defs>
</svg>
