<svg width="40" height="40" viewBox="0 0 40 40" fill="none" xmlns="http://www.w3.org/2000/svg">
<path d="M17.4923 37.5C20.1842 37.5 22.7567 36.7169 24.9855 35.2456L23.0455 33.3056C21.363 34.2925 19.4573 34.8181 17.4986 34.8188C17.4973 34.8188 17.4961 34.8194 17.4948 34.8194C17.4936 34.8194 17.4923 34.8188 17.4911 34.8188C11.4473 34.8175 6.53047 29.9 6.53047 23.8562C6.53047 17.8125 11.4486 12.8937 17.493 12.8937C23.5373 12.8937 28.4555 17.8119 28.4555 23.8562C28.4555 24.0712 28.4473 24.27 28.4348 24.4625C28.5273 24.5425 28.6205 24.6219 28.708 24.7094L28.7492 24.7506L28.7905 24.7094C29.458 24.0419 30.2692 23.6063 31.1248 23.3925C30.8792 16.0875 24.8605 10.2188 17.493 10.2188C9.97297 10.2188 3.85547 16.3369 3.85547 23.8562C3.85547 31.3756 9.97297 37.5 17.4923 37.5Z" fill="#909B6D"/>
<path d="M15.793 23.8575C15.793 24.7956 16.5561 25.5594 17.4948 25.5594C18.4336 25.5594 19.1967 24.7963 19.1967 23.8575C19.1967 22.9188 18.4336 22.1562 17.4948 22.1562C16.5561 22.1562 15.793 22.9194 15.793 23.8575Z" fill="#CE7356"/>
<path d="M20.3769 23.2294H23.2781C23.4594 23.2294 23.62 23.3094 23.7338 23.4331C24.8719 23.1038 26.1025 23.1863 27.1963 23.6725C27.1025 18.6113 23.1225 14.4938 18.12 14.1719V15.4569C18.12 15.8019 17.84 16.0819 17.495 16.0819C17.15 16.0819 16.87 15.8019 16.87 15.4569V14.1719C12.0125 14.4825 8.12313 18.3719 7.8125 23.2294H9.09687C9.44187 23.2294 9.72187 23.5094 9.72187 23.8544C9.72187 24.1994 9.44187 24.4794 9.09687 24.4794H7.8125C8.12438 29.3356 12.0131 33.2231 16.87 33.5338V32.2519C16.87 31.9069 17.15 31.6269 17.495 31.6269C17.84 31.6269 18.12 31.9069 18.12 32.2519V33.5425C19.5281 33.4525 20.8931 33.0594 22.1319 32.3875L21.5794 31.835C19.6138 29.8694 19.6138 26.6713 21.5794 24.7063C21.66 24.6256 21.7456 24.5538 21.8306 24.4794H20.3775C20.0894 25.8069 18.9081 26.8063 17.4956 26.8063C16.0831 26.8063 14.9019 25.8075 14.6137 24.4794H11.7125C11.3675 24.4794 11.0875 24.1994 11.0875 23.8544C11.0875 23.5094 11.3675 23.2294 11.7125 23.2294H14.6137C14.9019 21.9019 16.0831 20.9031 17.4956 20.9031C18.9081 20.9031 20.0888 21.9019 20.3769 23.2294Z" fill="#E0AD22"/>
<path d="M35.0372 30.9542C36.5153 29.4761 36.5153 27.0711 35.0372 25.593C33.5591 24.1148 31.1541 24.1148 29.6759 25.593L29.1978 26.0692C28.9678 26.2948 28.6047 26.308 28.3584 26.1017L28.2316 25.9955L27.8259 25.593C27.0866 24.8542 26.1159 24.4848 25.1447 24.4848C24.1734 24.4848 23.2034 24.8542 22.4641 25.593C20.9859 27.0711 20.9859 29.4761 22.4641 30.9542L28.7509 37.2411L35.0372 30.9542Z" fill="#E35F5C"/>
<path d="M14.0664 5.7325C14.0664 7.51562 15.5164 8.96562 17.2989 8.96562C19.0814 8.96562 20.532 7.51562 20.532 5.7325C20.532 3.94937 19.082 2.5 17.2989 2.5C15.5158 2.5 14.0664 3.95 14.0664 5.7325Z" fill="#CE7356"/>
</svg>
