<svg width="20" height="20" viewBox="0 0 20 20" fill="none" xmlns="http://www.w3.org/2000/svg">
<path d="M19.4995 2.72482C19.4995 3.00082 19.3915 3.25682 19.1995 3.45282L9.39353 13.2588C9.19954 13.4528 8.93954 13.5588 8.66354 13.5588C8.64553 13.5588 8.62554 13.5588 8.60753 13.5568C8.35354 13.5448 8.11554 13.4388 7.93754 13.2588L4.63353 9.95282C4.23153 9.55082 4.23153 8.89882 4.63353 8.49882C4.82754 8.30282 5.08553 8.19681 5.35953 8.19681C5.63553 8.19681 5.89353 8.30282 6.08954 8.49681L8.33553 10.7468C8.40953 10.8188 8.50554 10.8628 8.60753 10.8728C8.74553 10.8908 8.89154 10.8468 8.99353 10.7468L17.7435 1.99681C18.1435 1.59481 18.7975 1.59481 19.1995 1.99681C19.3915 2.19082 19.4995 2.45082 19.4995 2.72482Z" fill="#249F32"/>
<path d="M16.716 10.2759C16.67 14.7019 13.032 18.3019 8.608 18.3019C4.138 18.3019 0.5 14.6639 0.5 10.1939C0.5 5.72194 4.138 2.08594 8.608 2.08594C10.076 2.08594 11.518 2.48394 12.774 3.23594C13.212 3.49994 13.354 4.06993 13.092 4.50793C12.828 4.94794 12.258 5.08993 11.82 4.82594C10.852 4.24594 9.742 3.93794 8.608 3.93794C5.16 3.93794 2.354 6.74393 2.354 10.1939C2.354 13.6419 5.16 16.4479 8.608 16.4479C12.022 16.4479 14.826 13.6699 14.862 10.2579C14.868 9.74994 15.282 9.33993 15.788 9.33993H15.798C16.31 9.34594 16.722 9.76394 16.716 10.2759Z" fill="#249F32"/>
</svg>
