<svg width="15" height="20" viewBox="0 0 15 20" fill="none" xmlns="http://www.w3.org/2000/svg">
<path d="M1.80775 19.5C1.30908 19.5 0.883083 19.3234 0.52975 18.9703C0.176583 18.6169 0 18.1909 0 17.6923V8.30775C0 7.80908 0.176583 7.38308 0.52975 7.02975C0.883083 6.67658 1.30908 6.5 1.80775 6.5H3V4.5C3 3.25133 3.43783 2.18917 4.3135 1.3135C5.18917 0.437833 6.25133 0 7.5 0C8.74867 0 9.81083 0.437833 10.6865 1.3135C11.5622 2.18917 12 3.25133 12 4.5V6.5H13.1923C13.6909 6.5 14.1169 6.67658 14.4703 7.02975C14.8234 7.38308 15 7.80908 15 8.30775V17.6923C15 18.1909 14.8234 18.6169 14.4703 18.9703C14.1169 19.3234 13.6909 19.5 13.1923 19.5H1.80775ZM1.80775 18H13.1923C13.2821 18 13.3558 17.9712 13.4135 17.9135C13.4712 17.8558 13.5 17.7821 13.5 17.6923V8.30775C13.5 8.21792 13.4712 8.14417 13.4135 8.0865C13.3558 8.02883 13.2821 8 13.1923 8H1.80775C1.71792 8 1.64417 8.02883 1.5865 8.0865C1.52883 8.14417 1.5 8.21792 1.5 8.30775V17.6923C1.5 17.7821 1.52883 17.8558 1.5865 17.9135C1.64417 17.9712 1.71792 18 1.80775 18ZM7.5 14.75C7.98583 14.75 8.399 14.5798 8.7395 14.2395C9.07983 13.899 9.25 13.4858 9.25 13C9.25 12.5142 9.07983 12.101 8.7395 11.7605C8.399 11.4202 7.98583 11.25 7.5 11.25C7.01417 11.25 6.601 11.4202 6.2605 11.7605C5.92017 12.101 5.75 12.5142 5.75 13C5.75 13.4858 5.92017 13.899 6.2605 14.2395C6.601 14.5798 7.01417 14.75 7.5 14.75ZM4.5 6.5H10.5V4.5C10.5 3.66667 10.2083 2.95833 9.625 2.375C9.04167 1.79167 8.33333 1.5 7.5 1.5C6.66667 1.5 5.95833 1.79167 5.375 2.375C4.79167 2.95833 4.5 3.66667 4.5 4.5V6.5Z" fill="#CE7356"/>
</svg>
